<svg xmlns="http://www.w3.org/2000/svg" width="512" height="512"><path d="M241 0h31v30h30v31h-30l-1 37 4 2a206 206 0 0 1 5.625 4.25c.56.435 1.118.87 1.695 1.317q1.849 1.44 3.695 2.882 3.1 2.421 6.208 4.832 5.725 4.45 11.446 8.905Q309.334 126.595 315 131l6.75 5.25 42.75 33.25 6.732 5.237q5.772 4.49 11.55 8.974C404.817 200.818 404.817 200.818 407 203a83 83 0 0 1 .123 4.949l.006 3.268-.009 3.634.003 3.826q.002 5.281-.007 10.563-.005 5.685-.002 11.372 0 9.86-.008 19.72-.011 14.255-.012 28.51-.004 23.127-.019 46.252-.014 22.471-.02 44.942v2.796l-.005 13.886Q407.034 454.36 407 512h-73l-.078-23.754q-.037-7.485-.082-14.97c-.048-7.907-.092-15.813-.111-23.72-.015-6.38-.05-12.76-.097-19.14q-.023-3.638-.024-7.273c-.011-16.25-.613-30.875-8.42-45.518l-1.047-2.02c-2.844-5.343-6.071-10.11-10.141-14.605l-1.723-2c-13.463-14.636-32.567-21.715-52.057-22.875-20.693-.852-39.902 7.2-55.142 20.898-13.97 13.153-22.345 32.28-23.184 51.398-.056 2.74-.083 5.478-.1 8.218l-.03 3.136q-.044 5.097-.08 10.194l-.063 7.095q-.082 9.312-.153 18.623c-.06 7.457-.126 14.915-.19 22.372-.098 11.314-.187 22.627-.278 33.941h-76a50290 50290 0 0 1-.44-131.635l-.006-2.794c-.035-14.937-.098-29.873-.171-44.809q-.112-22.986-.136-45.972-.014-14.185-.11-28.371c-.043-6.484-.055-12.967-.045-19.451.005-3.742-.003-7.483-.046-11.225-.046-4.057-.03-8.112-.008-12.17l-.07-3.582c.113-7.806.113-7.806 2.772-11.236 2.006-1.78 4.022-3.283 6.26-4.755l2.992-2.379 2.883-2.184q1.694-1.29 3.387-2.582l1.818-1.385c3.552-2.72 7.078-5.471 10.608-8.22l2.306-1.795 4.675-3.64q5.665-4.41 11.331-8.815l4.5-3.5 47.253-36.752q2.236-1.738 4.468-3.476a25577 25577 0 0 1 18.855-14.655l2.131-1.656 1.859-1.444L234 102l2.693-1.655c3.257-3.311 3.036-6.425 3.014-10.83l.046-2.47c.043-2.6.052-5.196.06-7.795q.034-2.646.076-5.293c.067-4.32.088-8.636.111-12.957h-30V30h31zm-18.52 195.742c-8.85 11.16-12.534 22.767-11.082 36.985 2.406 13.087 10.02 23.49 20.602 31.273 10.271 6.01 21.282 8.274 33 6 7.523-2.011 13.873-5.212 20-10l1.867-1.45c7.337-6.472 12.564-17.366 13.985-26.995.854-14.705-3.168-26.47-12.852-37.555-9.333-8.864-21.594-13.567-34.398-13.25-11.574 1.112-23.413 6.154-31.122 14.992M436 292c4.31 1.724 5.948 2.573 9.125 5.563 4.592 4.208 9.357 8.144 14.192 12.068 3.363 2.736 6.71 5.49 10.058 8.244l2.218 1.824a973 973 0 0 1 13.094 10.988c5.021 4.285 10.16 8.399 15.382 12.435q1.598 1.237 3.16 2.517c1.724 1.39 1.724 1.39 3.596 2.39 2.278 1.466 3.634 2.725 5.175 4.971 1.042 5.079.885 10.121.795 15.277q-.003 2.351.003 4.702c.002 4.246-.04 8.49-.088 12.736-.044 4.44-.048 8.88-.056 13.32-.022 8.405-.08 16.809-.15 25.213-.093 11.36-.13 22.719-.171 34.078-.066 17.892-.206 35.782-.333 53.674h-76zm-360 0v220H0c-.524-39.43-.524-39.43-.635-55.982-.077-11.42-.167-22.838-.346-34.256q-.197-12.475-.242-24.95a745 745 0 0 0-.151-13.203c-.09-4.15-.116-8.296-.096-12.447q-.006-2.275-.08-4.548c-.349-11.098-.349-11.098 2.812-15.287 3.062-3.165 6.487-5.733 10.12-8.204 2.407-1.67 4.627-3.551 6.868-5.435l2.68-2.184q5.731-4.678 11.445-9.379l2.219-1.825a974 974 0 0 0 13.093-10.988c5.053-4.31 10.224-8.45 15.47-12.522l1.652-1.282 1.6-1.241c1.662-1.324 3.267-2.701 4.876-4.087C74 292 74 292 76 292"/><path d="M284.816 372.535c10.236 6.867 16.846 17.12 19.761 29.113.786 4.372.683 8.744.65 13.174v3.196c0 3.463-.016 6.925-.032 10.388l-.008 7.23c-.008 6.326-.028 12.652-.05 18.978-.024 7.6-.033 15.198-.045 22.798-.019 11.53-.057 23.059-.092 34.588h-95c-.08-25.514-.08-25.514-.098-36.432-.012-7.435-.026-14.87-.053-22.305a6484 6484 0 0 1-.039-17.992q-.004-3.424-.021-6.848c-.015-3.209-.017-6.418-.016-9.627l-.022-2.827c.048-15.388 4.234-27.646 15.046-38.852 16.365-15.726 41.345-16.498 60.02-4.582M265.313 212.75c3.864 3.236 5.322 5.735 6.5 10.625.288 5.582-.56 9.18-4.25 13.438-5.073 4.33-8.106 4.621-14.61 4.503-3.958-.424-6.076-1.587-8.953-4.316-3.118-3.871-4.145-8.073-4-13 .872-4.292 2.249-7.229 5.313-10.375 6.964-4.211 12.824-4.666 20-.875"/></svg>