<?xml version="1.0" standalone="no"?>
<!DOCTYPE svg PUBLIC "-//W3C//DTD SVG 20010904//EN"
 "http://www.w3.org/TR/2001/REC-SVG-20010904/DTD/svg10.dtd">
<svg version="1.0" xmlns="http://www.w3.org/2000/svg"
 width="512.000000pt" height="512.000000pt" viewBox="0 0 512.000000 512.000000"
 preserveAspectRatio="xMidYMid meet">

<g transform="translate(0.000000,512.000000) scale(0.100000,-0.100000)"
fill="#000000" stroke="none">
<path d="M1477 4140 c-59 -10 -129 -50 -161 -93 -14 -18 -102 -172 -197 -342
-94 -171 -178 -320 -186 -333 l-14 -23 -32 43 c-56 74 -75 79 -284 76 -199 -3
-208 -6 -257 -72 -19 -25 -21 -42 -21 -171 0 -129 2 -146 21 -171 42 -57 69
-69 165 -72 l89 -4 -44 -49 c-24 -27 -55 -71 -68 -97 l-23 -47 -3 -808 c-1
-515 1 -822 8 -845 13 -49 62 -107 113 -135 40 -21 53 -22 297 -22 292 0 324
6 383 76 43 50 57 97 57 194 l0 77 78 -6 c655 -55 1444 -59 2177 -11 121 8
221 15 223 15 1 0 2 -34 2 -76 0 -96 14 -143 57 -193 59 -70 91 -76 383 -76
244 0 257 1 297 22 51 28 100 86 113 135 7 23 9 330 8 845 l-3 808 -23 47
c-13 26 -44 70 -68 97 l-44 49 89 4 c96 3 123 15 165 72 19 25 21 42 21 171 0
129 -2 146 -21 171 -49 66 -58 69 -257 72 -209 3 -228 -2 -283 -75 -23 -31
-35 -39 -42 -30 -5 7 -89 157 -187 334 -97 177 -190 337 -206 357 -16 19 -55
47 -87 63 l-57 28 -1065 1 c-586 1 -1086 -2 -1113 -6z m2180 -176 c18 -13 96
-142 227 -378 109 -196 197 -359 194 -361 -5 -5 -349 -41 -528 -55 -401 -31
-1214 -41 -1645 -20 -305 15 -850 63 -864 75 -6 7 387 710 407 729 11 9 33 21
48 26 16 5 502 8 1081 7 1045 -2 1052 -2 1080 -23z m-2872 -706 c17 -29 32
-57 34 -61 2 -5 -7 -19 -20 -33 -22 -23 -27 -24 -171 -24 l-148 0 0 85 0 85
138 0 137 0 30 -52z m3855 -33 l0 -85 -148 0 c-144 0 -149 1 -171 24 -13 14
-22 28 -20 33 2 4 18 32 34 61 l30 52 138 0 137 0 0 -85z m-3410 -184 c436
-50 585 -56 1330 -56 746 0 897 6 1335 56 99 11 206 23 238 26 l59 6 140 -139
c77 -76 146 -153 154 -171 11 -27 14 -140 14 -626 l0 -594 -57 -7 c-164 -18
-549 -48 -840 -66 -1039 -62 -1585 -53 -2682 46 -151 13 -280 24 -288 24 -11
0 -13 105 -13 594 0 391 4 604 10 623 6 15 75 93 153 171 l142 144 65 -6 c36
-3 144 -14 240 -25z m-320 -1686 c102 -9 200 -18 218 -21 l32 -5 0 -78 c0
-120 8 -116 -270 -116 -285 0 -270 -8 -270 143 l0 104 53 -6 c28 -3 135 -13
237 -21z m3590 -78 c0 -150 15 -142 -270 -142 -278 0 -270 -4 -270 117 0 43 1
78 3 79 4 1 491 46 515 48 21 1 22 -1 22 -102z"/>
<path d="M860 2478 c-68 -47 -75 -65 -78 -211 -2 -122 -1 -135 20 -172 15 -26
39 -48 68 -62 42 -22 55 -23 281 -23 143 0 249 4 266 11 42 15 92 68 103 109
5 19 10 80 10 135 0 117 -21 174 -79 212 -33 22 -41 23 -296 23 -255 0 -263
-1 -295 -22z m510 -223 l0 -85 -215 0 -215 0 0 85 0 85 215 0 215 0 0 -85z"/>
<path d="M3669 2477 c-58 -38 -79 -95 -79 -212 0 -55 5 -116 10 -135 11 -41
61 -94 103 -109 17 -7 123 -11 266 -11 226 0 239 1 281 23 33 16 51 34 68 67
21 41 23 56 20 172 -3 140 -11 160 -78 206 -32 21 -40 22 -295 22 -255 0 -263
-1 -296 -23z m511 -222 l0 -85 -215 0 -215 0 0 85 0 85 215 0 215 0 0 -85z"/>
<path d="M1930 2328 c-56 -16 -114 -64 -144 -119 -22 -39 -86 -323 -86 -380 0
-89 49 -166 135 -212 40 -22 42 -22 725 -22 683 0 685 0 725 22 86 46 135 123
135 212 0 56 -63 339 -85 381 -19 37 -71 86 -114 107 -33 17 -81 18 -646 20
-386 1 -623 -2 -645 -9z m1249 -175 c16 -19 62 -189 78 -286 8 -52 -3 -85 -37
-102 -25 -13 -115 -15 -653 -15 -430 0 -634 3 -656 11 -61 21 -63 50 -20 232
34 148 41 164 72 177 12 5 283 8 610 7 l589 -2 17 -22z"/>
<path d="M830 1820 c-26 -26 -27 -83 -1 -109 30 -30 63 -32 353 -29 266 3 266
3 292 27 32 30 34 69 5 105 l-20 26 -305 0 c-291 0 -305 -1 -324 -20z"/>
<path d="M3641 1814 c-29 -36 -27 -75 5 -105 26 -24 26 -24 292 -27 290 -3
323 -1 353 29 25 25 25 79 -1 107 -21 22 -25 22 -325 22 l-304 0 -20 -26z"/>
</g>
</svg>
