<?xml version="1.0" standalone="no"?>
<!DOCTYPE svg PUBLIC "-//W3C//DTD SVG 20010904//EN"
 "http://www.w3.org/TR/2001/REC-SVG-20010904/DTD/svg10.dtd">
<svg version="1.0" xmlns="http://www.w3.org/2000/svg"
 width="512.000000pt" height="512.000000pt" viewBox="0 0 512.000000 512.000000"
 preserveAspectRatio="xMidYMid meet">

<g transform="translate(0.000000,512.000000) scale(0.100000,-0.100000)"
fill="#000000" stroke="none">
<path d="M1184 5100 c-32 -13 -54 -50 -54 -90 0 -28 20 -65 94 -176 l94 -141
-26 -53 c-29 -60 -40 -152 -24 -199 l11 -31 -420 0 c-456 0 -462 -1 -487 -55
-17 -37 -15 -65 7 -100 10 -16 404 -514 875 -1105 l856 -1075 0 -627 0 -627
-26 -83 c-99 -315 -316 -502 -606 -524 -102 -7 -135 -19 -153 -55 -18 -34 -19
-60 -3 -94 26 -57 -4 -55 894 -55 l826 0 34 34 c46 46 46 86 0 132 -30 30 -40
34 -85 34 -83 0 -200 28 -286 70 -150 72 -268 206 -349 399 l-41 96 -3 650 -3
650 593 745 c326 410 603 758 616 774 l22 29 80 -37 c308 -141 642 -85 887
147 202 192 292 464 238 722 -70 337 -311 577 -643 641 -351 68 -718 -123
-868 -451 -29 -63 -64 -179 -64 -212 l0 -23 -663 0 -664 0 11 50 c37 184 -130
367 -318 347 l-51 -5 -90 135 c-49 74 -100 143 -113 154 -26 20 -63 24 -98 9z
m2907 -206 c38 -8 69 -19 69 -24 0 -13 -212 -380 -220 -380 -9 0 -300 315
-300 324 0 12 106 58 174 76 88 23 186 25 277 4z m312 -184 c66 -71 122 -179
142 -275 16 -76 19 -145 8 -145 -19 0 -424 88 -429 92 -6 7 207 387 217 388 4
0 32 -27 62 -60z m-731 -232 l60 -68 -181 0 c-152 0 -181 2 -181 15 0 27 48
145 81 201 l34 56 63 -68 c35 -38 91 -99 124 -136z m-2046 98 c24 -24 34 -43
34 -66 0 -41 -56 -100 -94 -100 -105 0 -145 136 -55 186 42 23 78 17 115 -20z
m79 -463 l65 -98 -257 -5 c-142 -3 -266 -9 -276 -14 -22 -11 -47 -57 -47 -89
0 -13 10 -39 23 -58 38 -57 913 -1153 937 -1174 14 -12 36 -20 61 -20 32 0 46
7 73 35 42 44 919 1149 935 1177 14 28 14 55 -1 88 -25 56 -19 55 -636 55
l-569 0 -67 100 -66 100 936 0 936 0 -34 -42 c-19 -24 -364 -458 -768 -965
-403 -508 -737 -923 -741 -923 -6 0 -1474 1838 -1527 1912 -13 17 5 18 472 18
l486 0 65 -97z m2584 27 c108 -23 204 -43 214 -46 16 -5 14 -12 -15 -67 -47
-90 -164 -204 -257 -250 -87 -43 -111 -46 -112 -14 0 12 -10 111 -23 220 -12
113 -18 197 -13 197 5 0 98 -18 206 -40z m-384 -242 c22 -201 24 -191 -27
-183 -49 7 -152 40 -185 58 -22 12 -20 16 84 147 59 74 108 130 109 125 2 -6
10 -72 19 -147z m-1902 -233 c54 -80 97 -147 97 -150 0 -3 -83 -5 -183 -5
l-184 0 -104 132 c-57 73 -110 140 -117 150 -13 17 -4 18 191 18 l204 0 96
-145z m905 127 c-7 -10 -60 -78 -118 -150 l-105 -132 -170 0 -170 0 -80 121
c-44 67 -88 134 -98 150 l-19 29 387 0 c372 0 386 -1 373 -18z m-388 -486 c0
-6 -301 -381 -309 -384 -7 -2 -282 337 -304 375 -7 11 45 13 303 13 170 0 310
-2 310 -4z m-261 -2885 c24 -38 75 -101 114 -140 l71 -71 -235 0 -234 1 34 31
c59 53 132 141 163 196 16 28 33 52 36 52 4 0 27 -31 51 -69z"/>
</g>
</svg>
