<?xml version="1.0" standalone="no"?>
<!DOCTYPE svg PUBLIC "-//W3C//DTD SVG 20010904//EN"
 "http://www.w3.org/TR/2001/REC-SVG-20010904/DTD/svg10.dtd">
<svg version="1.0" xmlns="http://www.w3.org/2000/svg"
 width="512.000000pt" height="512.000000pt" viewBox="0 0 512.000000 512.000000"
 preserveAspectRatio="xMidYMid meet">

<g transform="translate(0.000000,512.000000) scale(0.100000,-0.100000)"
fill="#000000" stroke="none">
<path d="M1450 4525 l0 -85 85 0 85 0 0 -85 0 -85 -425 0 -425 0 0 -85 0 -85
85 0 85 0 0 -1710 0 -1710 -215 0 -215 0 0 556 0 556 33 -24 c17 -13 63 -48
102 -77 l70 -52 22 28 c13 15 36 46 52 69 l30 41 -125 92 -124 93 125 94 125
94 -47 65 c-27 35 -52 64 -57 65 -5 0 -51 -31 -102 -70 -52 -38 -96 -70 -99
-70 -3 0 -5 56 -5 125 l0 125 -85 0 -84 0 -3 -126 -3 -125 -94 70 c-52 39 -98
71 -102 71 -7 0 -87 -103 -94 -123 -3 -7 38 -45 102 -92 58 -44 113 -85 121
-91 12 -9 -7 -28 -106 -103 -67 -50 -122 -94 -122 -97 0 -7 92 -134 97 -134 2
0 49 34 103 75 l100 76 0 -556 0 -555 -170 0 -170 0 0 -85 0 -85 2560 0 2560
0 0 85 0 85 -170 0 -170 0 0 555 0 556 100 -76 c54 -41 101 -75 103 -75 5 0
97 127 97 134 0 3 -55 47 -122 97 -99 75 -118 94 -106 103 8 6 63 47 121 91
64 47 105 85 102 92 -7 20 -87 123 -94 123 -4 0 -50 -32 -102 -71 l-94 -70 -3
125 -3 126 -84 0 -85 0 0 -125 c0 -69 -2 -125 -5 -125 -3 0 -47 32 -99 70 -51
39 -97 70 -102 70 -5 -1 -30 -30 -57 -65 l-47 -65 125 -94 125 -94 -118 -87
c-64 -48 -120 -91 -125 -95 -12 -10 92 -142 106 -133 10 5 135 98 185 136 9 8
12 -103 12 -547 l0 -556 -215 0 -215 0 0 1710 0 1710 85 0 85 0 0 85 0 85
-425 0 -425 0 0 85 0 85 85 0 85 0 0 85 0 85 -1110 0 -1110 0 0 -85z m1875
-1965 l0 -1875 -127 -3 -128 -3 0 270 c0 148 -3 277 -6 286 -17 43 -40 45
-504 45 -464 0 -487 -2 -504 -45 -3 -9 -6 -138 -6 -286 l0 -270 -127 3 -128 3
-3 1865 c-1 1026 0 1871 3 1878 3 10 162 12 767 10 l763 -3 0 -1875z m-1705
-170 l0 -1710 -255 0 -255 0 0 1710 0 1710 255 0 255 0 0 -1710z m2390 0 l0
-1710 -255 0 -255 0 0 1710 0 1710 255 0 255 0 0 -1710z m-1540 -1495 l0 -215
-125 0 -125 0 0 215 0 215 125 0 125 0 0 -215z m430 0 l0 -215 -125 0 -125 0
0 215 0 215 125 0 125 0 0 -215z"/>
<path d="M1967 4263 c-4 -3 -7 -62 -7 -130 l0 -123 85 0 85 0 0 130 0 130 -78
0 c-43 0 -82 -3 -85 -7z"/>
<path d="M2307 4263 c-4 -3 -7 -62 -7 -130 l0 -123 85 0 85 0 0 130 0 130 -78
0 c-43 0 -82 -3 -85 -7z"/>
<path d="M2650 4140 l0 -130 85 0 86 0 -3 128 -3 127 -82 3 -83 3 0 -131z"/>
<path d="M2990 4140 l0 -130 85 0 86 0 -3 128 -3 127 -82 3 -83 3 0 -131z"/>
<path d="M1962 3713 l3 -128 83 -3 82 -3 0 131 0 130 -85 0 -86 0 3 -127z"/>
<path d="M2302 3713 l3 -128 83 -3 82 -3 0 131 0 130 -85 0 -86 0 3 -127z"/>
<path d="M2650 3710 l0 -131 83 3 82 3 3 128 3 127 -86 0 -85 0 0 -130z"/>
<path d="M2990 3710 l0 -131 83 3 82 3 3 128 3 127 -86 0 -85 0 0 -130z"/>
<path d="M1960 3285 l0 -125 85 0 85 0 0 125 0 125 -85 0 -85 0 0 -125z"/>
<path d="M2300 3285 l0 -125 85 0 85 0 0 125 0 125 -85 0 -85 0 0 -125z"/>
<path d="M2650 3285 l0 -125 85 0 85 0 0 125 0 125 -85 0 -85 0 0 -125z"/>
<path d="M2990 3285 l0 -125 85 0 85 0 0 125 0 125 -85 0 -85 0 0 -125z"/>
<path d="M1967 2983 c-4 -3 -7 -62 -7 -130 l0 -123 85 0 85 0 0 130 0 130 -78
0 c-43 0 -82 -3 -85 -7z"/>
<path d="M2307 2983 c-4 -3 -7 -62 -7 -130 l0 -123 85 0 85 0 0 130 0 130 -78
0 c-43 0 -82 -3 -85 -7z"/>
<path d="M2650 2860 l0 -130 85 0 86 0 -3 128 -3 127 -82 3 -83 3 0 -131z"/>
<path d="M2990 2860 l0 -130 85 0 86 0 -3 128 -3 127 -82 3 -83 3 0 -131z"/>
<path d="M1962 2433 l3 -128 83 -3 82 -3 0 131 0 130 -85 0 -86 0 3 -127z"/>
<path d="M2302 2433 l3 -128 83 -3 82 -3 0 131 0 130 -85 0 -86 0 3 -127z"/>
<path d="M2650 2430 l0 -131 83 3 82 3 3 128 3 127 -86 0 -85 0 0 -130z"/>
<path d="M2990 2430 l0 -131 83 3 82 3 3 128 3 127 -86 0 -85 0 0 -130z"/>
<path d="M1960 2005 l0 -125 85 0 85 0 0 125 0 125 -85 0 -85 0 0 -125z"/>
<path d="M2300 2005 l0 -125 85 0 85 0 0 125 0 125 -85 0 -85 0 0 -125z"/>
<path d="M2650 2005 l0 -125 85 0 85 0 0 125 0 125 -85 0 -85 0 0 -125z"/>
<path d="M2990 2005 l0 -125 85 0 85 0 0 125 0 125 -85 0 -85 0 0 -125z"/>
<path d="M1967 1703 c-4 -3 -7 -62 -7 -130 l0 -123 85 0 85 0 0 130 0 130 -78
0 c-43 0 -82 -3 -85 -7z"/>
<path d="M2307 1703 c-4 -3 -7 -62 -7 -130 l0 -123 85 0 85 0 0 130 0 130 -78
0 c-43 0 -82 -3 -85 -7z"/>
<path d="M2650 1580 l0 -130 85 0 86 0 -3 128 -3 127 -82 3 -83 3 0 -131z"/>
<path d="M2990 1580 l0 -130 85 0 86 0 -3 128 -3 127 -82 3 -83 3 0 -131z"/>
<path d="M1280 3710 l0 -130 85 0 85 0 0 130 0 130 -85 0 -85 0 0 -130z"/>
<path d="M1280 3285 l0 -125 85 0 85 0 0 125 0 125 -85 0 -85 0 0 -125z"/>
<path d="M1280 2860 l0 -130 85 0 85 0 0 130 0 130 -85 0 -85 0 0 -130z"/>
<path d="M1280 2430 l0 -130 85 0 85 0 0 130 0 130 -85 0 -85 0 0 -130z"/>
<path d="M1280 2005 l0 -125 85 0 85 0 0 125 0 125 -85 0 -85 0 0 -125z"/>
<path d="M1280 1580 l0 -130 85 0 85 0 0 130 0 130 -85 0 -85 0 0 -130z"/>
<path d="M1280 1150 l0 -130 85 0 85 0 0 130 0 130 -85 0 -85 0 0 -130z"/>
<path d="M3670 3710 l0 -130 85 0 85 0 0 130 0 130 -85 0 -85 0 0 -130z"/>
<path d="M3670 3285 l0 -125 85 0 85 0 0 125 0 125 -85 0 -85 0 0 -125z"/>
<path d="M3670 2860 l0 -130 85 0 85 0 0 130 0 130 -85 0 -85 0 0 -130z"/>
<path d="M3670 2430 l0 -130 85 0 85 0 0 130 0 130 -85 0 -85 0 0 -130z"/>
<path d="M3670 2005 l0 -125 85 0 85 0 0 125 0 125 -85 0 -85 0 0 -125z"/>
<path d="M3670 1580 l0 -130 85 0 85 0 0 130 0 130 -85 0 -85 0 0 -130z"/>
<path d="M3670 1150 l0 -130 85 0 85 0 0 130 0 130 -85 0 -85 0 0 -130z"/>
</g>
</svg>
